<svg width="53" height="35" viewBox="0 0 53 35" fill="none" xmlns="http://www.w3.org/2000/svg">
<g clip-path="url(#clip0_2018_75)">
<path d="M8.62999 4.9925C6.89999 4.9925 5.25 4.9925 3.59 4.9925C3.16 4.9925 2.78 4.91015 2.64 4.49839C2.52 4.1278 2.7 3.87045 3.05 3.65427C4.85 2.57339 6.64999 1.47192 8.45999 0.411622C8.84999 0.185152 9.23999 -0.154554 9.80999 0.0925048C10.38 0.339564 10.27 0.792505 10.27 1.19398C10.28 3.18074 10.27 5.1675 10.27 7.15427C10.27 7.31897 10.27 7.47339 10.27 7.58662C13.97 7.19545 17.64 6.81456 21.35 6.42339V5.72339C20.83 5.72339 20.32 5.72339 19.81 5.72339C19.13 5.72339 18.82 5.47633 18.82 4.92045C18.82 3.55133 18.82 2.1925 18.82 0.823387C18.82 0.288093 19.12 0.0307401 19.76 0.0307401C24.2599 0.0307401 28.7699 0.0307401 33.2699 0.0307401C33.8799 0.0307401 34.1899 0.288093 34.1899 0.792505C34.1899 2.18221 34.1899 3.58221 34.1899 4.97192C34.1899 5.44545 33.8699 5.7028 33.2899 5.71309C32.7599 5.71309 32.2299 5.71309 31.6599 5.71309V6.42339C35.3399 6.80427 39.0199 7.19545 42.7299 7.57633C42.7299 7.49397 42.7299 7.33956 42.7299 7.18515C42.7299 5.27045 42.7299 3.35574 42.7299 1.44103C42.7299 1.20427 42.7299 0.967505 42.7599 0.73074C42.8699 0.03074 43.3899 -0.185436 44.1099 0.185152C44.7899 0.535152 45.4399 0.926328 46.0899 1.3175C47.3599 2.07927 48.6299 2.84103 49.8999 3.6028C50.2799 3.82927 50.5299 4.10721 50.3799 4.49839C50.2299 4.89986 49.8599 5.0028 49.3699 5.0028C47.7499 4.9925 46.1299 5.0028 44.4299 5.0028C44.4299 5.72339 44.4299 6.43368 44.4299 7.13368C44.4299 7.72388 44.7666 8.10133 45.4399 8.26603C47.3399 8.72927 49.1999 9.25427 50.8499 10.2013C51.3599 10.4896 51.8199 10.8602 52.2299 11.2307C52.7499 11.7043 52.9799 12.2807 52.9799 12.9396C52.9699 17.7778 52.9499 22.616 52.9899 27.444C52.9899 28.5557 52.4699 29.3896 51.4999 30.069C50.0099 31.1087 48.2399 31.6749 46.4199 32.1484C43.3799 32.941 40.2499 33.3734 37.0799 33.6719C32.1699 34.1454 27.2499 34.269 22.32 34.094C17.06 33.9087 11.83 33.4866 6.74999 32.2307C5.04 31.8087 3.39 31.2734 1.93 30.3984C1.23001 29.9763 0.590008 29.4925 0.270009 28.8131C0.100009 28.4631 0.0100095 28.0719 0.0100095 27.691C0.0200095 22.8734 0.0500094 18.066 9.55556e-06 13.2587C-0.00999042 12.0646 0.550008 11.2102 1.61001 10.5102C3.13 9.51162 4.91 8.95574 6.71999 8.47192C7.22999 8.33809 7.74999 8.24545 8.24999 8.10133C8.39999 8.06015 8.59999 7.91603 8.60999 7.81309C8.63999 6.89692 8.62999 5.98074 8.62999 4.9925ZM51.2699 15.266C49.8399 16.1307 48.2899 16.6763 46.6899 17.1087C41.8699 18.4057 36.8799 18.8896 31.8499 19.116C25.8299 19.394 19.83 19.2807 13.86 18.519C9.63999 17.9837 5.46 17.3146 1.74001 15.2866V15.7499C1.74001 17.191 1.79001 18.6322 1.72001 20.0631C1.67001 20.9587 2.12 21.566 2.97 22.0293C3.3 22.2043 3.62 22.4204 3.97 22.5234C5.64 23.0484 7.29999 23.6249 9.01999 24.0263C13.97 25.1587 19.05 25.519 24.1599 25.6116C29.4499 25.7146 34.7199 25.4263 39.9499 24.7263C42.5299 24.3866 45.0799 23.9337 47.5299 23.1616C48.6299 22.8116 49.7099 22.4307 50.5899 21.7513C51.0699 21.3807 51.3099 20.9381 51.3099 20.3719C51.2899 18.8175 51.3099 17.2528 51.3099 15.6984C51.3099 15.5749 51.2999 15.441 51.2899 15.2454L51.2699 15.266ZM38.9299 14.916C40.5599 15.1837 42.1399 15.3587 43.6499 15.7087C44.7299 15.9557 45.7099 15.9454 46.6899 15.5749C47.8999 15.1116 49.1499 14.7102 50.2599 14.1131C51.6199 13.3822 51.5899 12.4146 50.3099 11.591C49.7699 11.241 49.1599 10.9425 48.5299 10.716C45.0299 9.43956 41.3099 8.8528 37.5599 8.48221C34.6199 8.19397 31.6499 7.9778 28.6899 7.90574C25.8999 7.83368 23.1 7.89545 20.32 8.06015C17.58 8.22486 14.85 8.56456 12.13 8.91456C9.51999 9.25427 6.93999 9.77927 4.52 10.7057C3.77 10.994 3.04 11.3749 2.42 11.8175C1.54001 12.4454 1.56001 13.1866 2.4 13.8454C2.77 14.1337 3.19 14.4219 3.65 14.5866C4.88 15.0396 6.13999 15.4513 7.39999 15.8322C7.71999 15.9249 8.12999 15.9146 8.46999 15.8631C9.52999 15.6984 10.58 15.4822 11.64 15.2969C12.44 15.1631 13.25 15.0499 14.06 14.9263C14.08 14.8852 14.11 14.844 14.13 14.8028C13.97 14.7102 13.8 14.6278 13.66 14.5146C12.63 13.6602 11.6 12.7954 10.57 11.9307C10.24 11.6528 10.17 11.3337 10.4 11.0043C10.62 10.6954 10.98 10.6028 11.37 10.6954C11.58 10.7469 11.77 10.891 11.93 11.0249C13.31 12.1675 14.67 13.3102 16.05 14.4425C16.2 14.566 16.48 14.6587 16.69 14.6484C18.48 14.5557 20.27 14.4013 22.06 14.3293C23.24 14.2778 24.4299 14.3293 25.6599 14.3293C25.6599 14.0513 25.6599 13.9072 25.6599 13.7631C25.6599 12.5484 25.6599 11.3337 25.6599 10.1087C25.6599 9.5425 25.9699 9.24397 26.5299 9.25427C27.0599 9.25427 27.3599 9.56309 27.3599 10.0984C27.3599 11.3131 27.3599 12.5278 27.3599 13.7528V14.1337C30.4199 14.319 33.3999 14.5043 36.3799 14.669C36.5799 14.6793 36.8499 14.566 37.0099 14.4322C38.3599 13.3307 39.6799 12.2087 41.0199 11.0969C41.1299 11.0043 41.2399 10.9013 41.3699 10.819C41.7499 10.5925 42.2299 10.6131 42.5299 10.9013C42.8299 11.1999 42.8499 11.519 42.5699 11.8381C42.4499 11.9719 42.2999 12.0749 42.1699 12.1881C41.0999 13.0734 40.0399 13.969 38.9299 14.8852V14.916ZM20.54 32.6013C20.54 31.5101 20.54 30.4601 20.54 29.4101C20.54 28.7101 20.8 28.494 21.66 28.494C24.8499 28.494 28.0299 28.494 31.2199 28.494C32.2999 28.494 32.4999 28.6587 32.4999 29.544C32.4999 30.5528 32.4999 31.5513 32.4999 32.5704C32.6999 32.5704 32.8399 32.5704 32.9699 32.5704C34.5599 32.4366 36.1499 32.3131 37.7399 32.1484C40.9499 31.819 44.1199 31.3043 47.1699 30.3675C48.3599 30.0072 49.5099 29.5851 50.4899 28.8954C51.0399 28.5146 51.3199 28.041 51.2999 27.4234C51.2699 26.2807 51.2999 25.1381 51.2999 23.9954C51.2999 23.7175 51.2999 23.4499 51.2999 23.0999C49.8599 23.9646 48.3499 24.5101 46.7699 24.9322C41.7899 26.2704 36.6399 26.7337 31.4499 26.9704C27.1999 27.166 22.95 27.1043 18.7 26.8057C15.69 26.5999 12.69 26.2807 9.74999 25.7249C6.96999 25.1999 4.25 24.541 1.85 23.1822C1.83 23.1719 1.79001 23.1925 1.73001 23.2028C1.73001 24.6234 1.75001 26.044 1.73001 27.4749C1.72001 28.041 1.97 28.4837 2.47 28.8337C2.81 29.0704 3.16 29.3278 3.55 29.4719C4.93 29.966 6.30999 30.5013 7.73999 30.8719C10.66 31.644 13.69 32.0146 16.72 32.3131C17.97 32.4366 19.23 32.4984 20.54 32.6013ZM40.8599 16.7381C31.2999 15.3484 21.75 15.3484 12.19 16.7381C21.75 18.1175 31.2999 18.1278 40.8599 16.7381ZM20.56 1.44103V4.25133H32.4499V1.44103H20.56ZM22.26 32.694H30.7599V29.9454H22.26V32.694ZM29.9199 5.73368H23.13V6.41309H29.9199V5.73368ZM46.8799 3.55133C46.0099 3.03662 45.2699 2.59397 44.4999 2.14103V3.55133H46.8799ZM6.17999 3.55133H8.52999V2.15133C7.73999 2.62486 7.00999 3.05721 6.17999 3.55133Z" fill="white"/>
<path d="M3.43999 19.6C3.43999 19.25 3.42999 18.8897 3.43999 18.5397C3.45999 18.0971 3.80999 17.8088 4.30999 17.8191C4.78999 17.8191 5.12999 18.1074 5.13999 18.5294C5.14999 19.2397 5.14999 19.95 5.13999 20.6603C5.13999 21.1029 4.76999 21.3912 4.26999 21.3809C3.78999 21.3809 3.45999 21.0926 3.43999 20.6706C3.42999 20.3206 3.43999 19.9603 3.43999 19.6103V19.6Z" fill="white"/>
<path d="M49.5799 19.6206C49.5799 19.9706 49.5899 20.3309 49.5799 20.6809C49.5599 21.0926 49.1999 21.3706 48.7199 21.3706C48.2399 21.3706 47.8899 21.0926 47.8799 20.6706C47.8599 19.95 47.8599 19.2191 47.8799 18.4985C47.8799 18.0867 48.2499 17.8088 48.7299 17.8088C49.2099 17.8088 49.5599 18.0867 49.5699 18.5088C49.5899 18.8794 49.5699 19.25 49.5699 19.6206H49.5799Z" fill="white"/>
<path d="M9.41997 21.0103C9.41997 20.6603 9.40997 20.3 9.41997 19.95C9.43997 19.5279 9.76997 19.25 10.25 19.2397C10.75 19.2397 11.11 19.5176 11.12 19.9603C11.13 20.6706 11.13 21.3809 11.12 22.0912C11.12 22.5132 10.77 22.7912 10.29 22.8014C9.78997 22.8014 9.43997 22.5235 9.41997 22.0809C9.40997 21.7309 9.41997 21.3706 9.41997 21.0206V21.0103Z" fill="white"/>
<path d="M43.5999 21.0412C43.5999 21.3912 43.6099 21.7514 43.5999 22.1014C43.5799 22.5132 43.2299 22.7912 42.7499 22.7912C42.2699 22.7912 41.9099 22.5132 41.8999 22.1014C41.8799 21.3809 41.8799 20.65 41.8999 19.9294C41.8999 19.5073 42.2699 19.2397 42.7499 19.2397C43.2299 19.2397 43.5799 19.5176 43.5999 19.9294C43.6199 20.3 43.5999 20.6706 43.5999 21.0412Z" fill="white"/>
<path d="M18.8199 22.4927C18.8199 22.8324 18.8299 23.1721 18.8199 23.5118C18.7999 23.9544 18.4399 24.2427 17.9399 24.2221C17.4699 24.2118 17.1199 23.9338 17.1199 23.5118C17.1099 22.8015 17.1099 22.0912 17.1199 21.3809C17.1199 20.9588 17.4699 20.6809 17.9399 20.6706C18.4399 20.6603 18.7899 20.9382 18.8199 21.3809C18.8199 21.3912 18.8199 21.4118 18.8199 21.4221C18.8199 21.7721 18.8199 22.1324 18.8199 22.4824V22.4927Z" fill="white"/>
<path d="M35.9099 22.4515C35.9099 22.8015 35.9199 23.1617 35.9099 23.5117C35.8899 23.9338 35.5599 24.2118 35.0799 24.222C34.5799 24.222 34.2199 23.9441 34.2099 23.5015C34.1999 22.7912 34.1999 22.0809 34.2099 21.3706C34.2099 20.9485 34.5599 20.6706 35.0399 20.6603C35.5399 20.6603 35.8999 20.9382 35.9099 21.3809C35.9199 21.7309 35.9099 22.0912 35.9099 22.4412V22.4515Z" fill="white"/>
<path d="M27.36 22.7603C27.36 23.1309 27.37 23.5015 27.36 23.872C27.34 24.2941 27.01 24.572 26.53 24.5823C26.03 24.5823 25.67 24.3044 25.66 23.8617C25.65 23.1515 25.65 22.4412 25.66 21.7309C25.66 21.3088 26.01 21.0309 26.49 21.0206C26.99 21.0206 27.34 21.2985 27.37 21.7412C27.37 21.7515 27.37 21.772 27.37 21.7823C27.37 22.1117 27.37 22.4309 27.37 22.7603H27.36Z" fill="white"/>
</g>
<defs>
<clipPath id="clip0_2018_75">
<rect width="53" height="35" fill="white"/>
</clipPath>
</defs>
</svg>
