<svg width="50" height="48" viewBox="0 0 50 48" fill="none" xmlns="http://www.w3.org/2000/svg">
<path d="M1.85714 32.3546H0C1.2381 28.5535 2.45238 24.8043 3.67857 21.0422H17.619V11.3643H14.5119C14.5119 10.3913 14.5 9.45729 14.5238 8.52324C14.5238 8.40648 14.7619 8.27675 14.9048 8.19891C18.8214 6.17513 22.75 4.16432 26.6786 2.15351C27.75 1.60864 28.8214 1.06378 29.881 0.505941C31.1548 -0.142708 32.4405 -0.168654 33.7143 0.479995C38.7619 3.04864 43.7857 5.64324 48.8214 8.23783C48.9643 8.31567 49.131 8.51026 49.1429 8.65297C49.1786 9.52216 49.1548 10.4043 49.1548 11.3254H46V11.8703C46 16.0476 46 20.2249 46 24.4022C46 24.6486 46.0714 24.934 46.2143 25.1416C50.25 31.213 50.1429 38.9578 45.9048 44.8735C45.8333 44.9773 45.75 45.094 45.631 45.2627H47.5357V46.8843H9.80952V45.3016H19.5952C19.2381 44.7567 18.9524 44.2768 18.619 43.8357C18.5238 43.7189 18.2738 43.68 18.0952 43.68C14.4167 43.68 10.75 43.68 7.07143 43.68C5.02381 43.68 2.96429 43.68 0.916667 43.68H0.357143V42.0713H1.86905V32.3546H1.85714ZM16.0238 9.56108C16.0238 9.56108 16.0952 9.65189 16.131 9.70378H47.5595C47.5595 9.70378 47.6071 9.63891 47.6309 9.59999C47.5238 9.49621 47.4286 9.35351 47.2976 9.28864C42.5476 6.83675 37.7857 4.39783 33.0238 1.95891C32.2262 1.54378 31.4167 1.56972 30.619 1.98486C29.8452 2.38702 29.0714 2.77621 28.2857 3.17837C24.3452 5.20216 20.4048 7.22594 16.4762 9.24972C16.3214 9.32756 16.1786 9.47026 16.0357 9.57405L16.0238 9.56108ZM21 22.7027C20.869 22.6767 20.8214 22.6638 20.7738 22.6638C15.5714 22.6638 10.369 22.6638 5.16667 22.6638C4.86905 22.6638 4.78571 22.8065 4.71429 23.053C3.92857 25.4919 3.13095 27.9308 2.34524 30.3567C2.30952 30.4735 2.29762 30.5903 2.27381 30.733H16.5595C17.3214 27.6584 18.7857 24.9989 21.0119 22.7027H21ZM23.9405 45.3146C17.8929 39.827 17.8214 30.9795 22.75 25.4919C27.5952 20.0951 35.7857 19.5243 41.1429 24.1946C43.9881 26.6724 45.6667 29.8249 45.9524 33.6389C46.3095 38.2573 44.6786 42.1232 41.2857 45.3146C41.9524 45.3146 42.5238 45.3405 43.0952 45.3016C43.3214 45.2886 43.6071 45.1719 43.75 45.0032C47.0833 41.0465 48.2857 36.493 47.1786 31.3946C45.4048 23.2476 37.5595 18.0454 29.5238 19.7968C22.0952 21.4054 17.0714 28.4886 17.7262 36.0908C18.0238 39.5286 19.3095 42.5124 21.5357 45.0811C21.631 45.1978 21.7976 45.3016 21.9286 45.3146C22.5595 45.3405 23.2024 45.3146 23.9405 45.3146ZM44.4167 11.3773H19.2619V21.0162H20.8095V12.9989H27.119V18.7719C27.6667 18.6032 28.1667 18.4476 28.6905 18.2919V12.9859H34.9643V17.9805C35.5119 18.0843 36 18.1881 36.5595 18.2919V12.9989H42.8452C42.8452 15.6973 42.8452 18.3568 42.8452 21.0162C42.8452 21.1849 42.8333 21.4054 42.9167 21.4962C43.381 21.9503 43.881 22.3784 44.4048 22.8454V11.3773H44.4167ZM12.8929 32.3935H6.64286V42.0324H12.8929V32.3935ZM36.5476 34.7935C36.5476 32.6011 34.7619 30.7719 32.631 30.7589C30.4881 30.7459 28.6667 32.5881 28.6786 34.8065C28.6786 37.0119 30.5 38.867 32.6429 38.8411C34.7738 38.8151 36.5595 36.9859 36.5476 34.7935ZM35 22.9362C35 23.1308 34.9762 23.2735 34.9762 23.4292C34.9762 25.3622 34.9762 27.2951 34.9762 29.2411C34.9762 29.8897 35.5833 30.227 36.1429 29.9027C37.7738 28.9427 39.4048 27.9697 41.0357 27.0097C41.1548 26.9319 41.2738 26.854 41.4167 26.7503C39.6548 24.7784 37.5595 23.507 35.0119 22.9492L35 22.9362ZM30.25 22.9362C27.6667 23.52 25.5595 24.7784 23.8095 26.7762C25.6667 27.8789 27.4643 28.9427 29.2619 30.0065C29.5833 30.1881 30.2381 29.8119 30.25 29.4486C30.25 27.3081 30.25 25.1805 30.25 22.9362ZM21.4286 30.9924C20.6071 33.574 20.6071 36.0778 21.4286 38.6205C23.2857 37.5178 25.119 36.4411 26.9405 35.3384C27.2024 35.1827 27.1905 34.4043 26.9167 34.2486C25.1071 33.1719 23.2857 32.0951 21.4167 30.9795L21.4286 30.9924ZM43.8095 30.9924C41.9881 32.0692 40.2381 33.107 38.4762 34.1578C37.9762 34.4562 37.9643 35.1567 38.4762 35.4551C39.381 36 40.2857 36.5319 41.2024 37.0767C42.0595 37.5827 42.9286 38.1016 43.8214 38.6205C44.631 36.0649 44.6429 33.5611 43.8214 30.9924H43.8095ZM34.9881 45.3146C36.131 45.3146 37.2262 45.3146 38.3214 45.3146C38.381 45.3146 38.4643 45.3146 38.5119 45.2886C39.6071 44.64 40.5833 43.8486 41.4405 42.8497C39.5714 41.747 37.7619 40.6573 35.9524 39.5935C35.6429 39.4119 34.9881 39.827 34.9881 40.1903C34.9881 41.8767 34.9881 43.5503 34.9881 45.3146ZM30.2619 45.3146C30.2619 43.5632 30.2619 41.8638 30.2619 40.1643C30.2619 40.0476 30.1548 39.9049 30.0595 39.814C29.7143 39.5157 29.369 39.4378 28.9762 39.7622C28.6786 39.9957 28.3333 40.1513 28.0119 40.3459C26.631 41.1632 25.25 41.9935 23.8214 42.8368C24.6667 43.8227 25.619 44.614 26.6905 45.2368C26.7738 45.2886 26.881 45.3016 26.9643 45.3016C28.0476 45.3016 29.119 45.3016 30.2738 45.3016L30.2619 45.3146ZM16.25 32.4065H14.5357V42.0584H17.6667C16.2857 38.9708 15.7857 35.7795 16.25 32.4065ZM25.5357 14.6205H22.4167V21.12C22.7024 21.0292 22.9405 21.0032 23.1429 20.8865C23.8571 20.4713 24.5595 20.0432 25.25 19.6022C25.381 19.5243 25.5119 19.3427 25.5119 19.2C25.5357 17.6822 25.5238 16.1773 25.5238 14.6205H25.5357ZM41.2619 20.2638V14.6076H38.1548V18.733C39.1905 19.2389 40.2143 19.7449 41.2619 20.2508V20.2638ZM5.0119 42.0454V32.4065H3.5V42.0454H5.0119ZM30.2738 14.5946V17.9286C31.3214 17.8767 32.3333 17.8119 33.381 17.76V14.5946H30.2738ZM33.3929 22.7157H31.8571V29.0984H33.3929V22.7157ZM28.25 31.2649C26.4286 30.1881 24.6429 29.1243 22.7976 28.0346C22.5357 28.5276 22.2976 28.9557 22.0357 29.4227C23.869 30.5124 25.6667 31.5762 27.4643 32.64C27.7262 32.173 27.9762 31.7449 28.25 31.2649ZM37.7857 32.64C39.5833 31.5762 41.381 30.5124 43.2143 29.4227C42.9405 28.9427 42.7024 28.5016 42.4405 28.0346C40.5833 29.1373 38.7857 30.2011 37 31.2649C37.2738 31.7449 37.5238 32.1859 37.7738 32.64H37.7857ZM22.8214 41.5135C24.6786 40.4108 26.4762 39.347 28.2619 38.2832C27.9881 37.8032 27.75 37.3751 27.4762 36.9081C25.6667 37.9849 23.869 39.0486 22.0357 40.1384C22.3095 40.6313 22.5476 41.0465 22.8095 41.5135H22.8214ZM37.0119 38.2832C38.8095 39.347 40.619 40.4238 42.4524 41.5135C42.7262 41.0205 42.9643 40.5924 43.2143 40.1254C41.369 39.0357 39.5833 37.9719 37.7857 36.9081C37.5119 37.3881 37.2738 37.8162 37 38.2832H37.0119ZM33.3929 45.2627V40.4497H31.869V45.2627H33.3929Z" fill="white"/>
<path d="M30.25 34.7546C30.25 33.4054 31.3095 32.3546 32.6429 32.3546C33.9524 32.3546 34.9881 33.4443 34.9762 34.8065C34.9762 36.1557 33.9167 37.2065 32.5833 37.2065C31.2738 37.2065 30.25 36.1167 30.25 34.7546ZM33.3929 34.7805C33.3929 34.3654 33 33.9762 32.5952 33.9892C32.1905 33.9892 31.8095 34.4173 31.8333 34.8194C31.8571 35.2216 32.2262 35.5849 32.6071 35.5849C33.0119 35.5849 33.3929 35.1957 33.3929 34.7805Z" fill="white"/>
</svg>
