<svg width="42" height="38" viewBox="0 0 42 38" fill="none" xmlns="http://www.w3.org/2000/svg">
<g clip-path="url(#clip0_2018_85)">
<path d="M0 1.47128C0.283256 1.08154 0.654419 0.954871 1.13302 0.974358C2.05116 1.01333 2.97907 0.974358 3.90698 0.984102C4.52233 0.984102 4.81535 1.27641 4.81535 1.89026C4.81535 3.97538 4.81535 6.05077 4.81535 8.17487C4.94233 8.17487 5.05954 8.19436 5.17674 8.19436C5.94837 8.19436 6.72977 8.19436 7.5014 8.19436C8.01907 8.19436 8.24372 8.34051 8.41953 8.79846C9.2986 11.0103 10.4219 13.1051 11.7209 15.0928C13.7916 18.2692 16.2628 21.0949 19.2614 23.4528C19.5349 23.6672 19.7302 23.6769 20.033 23.5113C24.4967 21.0949 28.9605 18.6882 33.4242 16.2718C33.7172 16.1159 33.9809 15.9015 34.2251 15.6872C34.8307 15.1415 35.407 14.5667 36.0028 14.0113C37.0479 13.0467 38.6107 13.0856 39.5777 14.0892C40.5153 15.0733 40.4665 16.5154 39.4605 17.5385C38.7279 18.279 37.9856 19.0097 37.214 19.7697C38.3274 20.3544 39.0991 21.2118 39.4116 22.4297C39.7242 23.6282 39.48 24.7487 38.7474 25.8303C39.2846 25.8303 39.7633 25.8303 40.2419 25.8303C40.8279 25.8303 41.1307 26.1323 41.1405 26.7072C41.1405 27.0287 41.1405 27.3503 41.1405 27.6718C41.1405 28.1979 40.8377 28.539 40.3591 28.5487C39.8609 28.5585 39.5484 28.2272 39.5288 27.6815C39.5288 27.6133 39.5288 27.5451 39.5191 27.4574H36.3446V35.4277H39.5386C39.5386 35.2815 39.5386 35.1256 39.5386 34.9697C39.5581 34.4826 39.8902 34.161 40.3493 34.161C40.7986 34.161 41.1307 34.4826 41.1405 34.9405C41.1502 35.379 41.1502 35.8174 41.1405 36.2656C41.1307 36.7236 40.8084 37.0256 40.3395 37.0451C40.2321 37.0451 40.1247 37.0451 40.0172 37.0451C27.0558 37.0451 14.1042 37.0451 1.14279 37.0451C0.664186 37.0451 0.293023 36.9379 0.00976744 36.5579V1.47128H0ZM1.63116 13.0077V35.4277H14.4265C13.7916 34.5313 13.567 33.5667 13.6744 32.4364C13.0786 32.9138 12.4535 32.7872 11.8479 32.7969C10.9786 32.7969 10.1093 32.7969 9.24 32.7969C7.90186 32.7969 6.83721 31.7446 6.82744 30.4195C6.82744 29.0651 7.86279 27.9933 9.22046 27.9933C9.91395 27.9933 10.6172 28.0128 11.3107 27.9933C11.5647 27.9933 11.8381 27.9251 12.0628 27.8082C13.8405 26.8631 15.6181 25.8985 17.386 24.9436C17.5912 24.8364 17.7963 24.7097 18.0307 24.5831C17.4837 24.1154 16.966 23.6867 16.4679 23.219C12.4437 19.5262 9.39628 15.1415 7.22791 10.1431C7.1107 9.87026 6.96419 9.80205 6.6907 9.80205C5.49907 9.81179 4.30744 9.80205 3.11581 9.80205H1.63116V11.4097C2.79349 11.4097 3.92651 11.4097 5.05953 11.4097C5.20605 11.4097 5.36233 11.4097 5.4893 11.4585C5.86046 11.5754 6.06558 11.9554 6.00698 12.3451C5.94837 12.7251 5.63581 13.0077 5.21581 13.0077C4.02419 13.0077 2.83256 13.0077 1.6214 13.0077H1.63116ZM19.3688 29.3964C20.5116 29.9908 21.2637 30.858 21.5763 32.0662C21.8791 33.2646 21.6349 34.3851 20.9316 35.4277H34.6744V30.7118C33.3656 30.5656 32.086 30.4585 30.8163 30.2636C28.0521 29.8349 25.4247 28.9677 22.934 27.7108C22.8363 27.6621 22.6898 27.6231 22.6116 27.6621C21.5372 28.2272 20.4726 28.8021 19.3688 29.3964ZM10.8419 31.2087C11.2033 31.2087 11.5647 31.1892 11.926 31.2087C12.4047 31.2477 12.8051 31.1015 13.2153 30.8774C20.8047 26.7754 28.394 22.6831 35.9833 18.5908C36.1298 18.5128 36.286 18.4056 36.4033 18.2887C37.0381 17.6749 37.6633 17.0513 38.2786 16.4179C38.6888 16.0087 38.7279 15.5605 38.4056 15.2097C38.0442 14.82 37.5167 14.82 37.087 15.2195C36.4912 15.7749 35.9051 16.3497 35.3093 16.8954C35.0749 17.1097 34.8405 17.3436 34.5572 17.4897C27.1926 21.4749 19.8279 25.4503 12.4633 29.4159C12.2777 29.5133 12.0335 29.5718 11.8186 29.5718C10.9981 29.5913 10.1874 29.5718 9.36698 29.5718C8.82977 29.5718 8.44884 29.9128 8.43907 30.361C8.43907 30.819 8.82 31.16 9.35721 31.1697C9.85535 31.1697 10.3437 31.1697 10.8419 31.1697V31.2087ZM24.4674 26.6487C27.7688 28.159 31.1386 28.919 34.6842 29.0164V27.399C32.4767 26.7267 31.3926 25.2262 31.4805 22.8682C29.1363 24.1349 26.8409 25.3723 24.4674 26.6487ZM35.4949 21.0267C34.186 21.0267 33.0921 22.1374 33.1019 23.4431C33.1019 24.739 34.2251 25.84 35.5242 25.8303C36.8233 25.8303 37.927 24.7097 37.9172 23.4138C37.9172 22.1082 36.794 21.0169 35.4949 21.0267ZM20.0819 33.0405C20.0819 31.7446 18.9781 30.6436 17.6693 30.6436C16.3702 30.6436 15.2665 31.7446 15.2665 33.0503C15.2665 34.3462 16.38 35.4569 17.6791 35.4472C18.9781 35.4472 20.0916 34.3364 20.0819 33.0405ZM3.18419 8.17487V2.62102H1.6214V8.18462H3.18419V8.17487Z" fill="white"/>
<path d="M41.1308 31.3646C41.1308 31.8226 40.7694 32.1636 40.3103 32.1539C39.8512 32.1539 39.5191 31.7836 39.5289 31.3257C39.5387 30.8872 39.8903 30.5559 40.3298 30.5559C40.7889 30.5559 41.1405 30.9067 41.1308 31.3646Z" fill="white"/>
<path d="M36.3056 23.4236C36.3056 23.8815 35.9539 24.2226 35.4851 24.2226C35.026 24.2226 34.6842 23.862 34.6939 23.3944C34.7037 22.9559 35.0456 22.6246 35.4949 22.6149C35.9539 22.6149 36.3056 22.9559 36.3056 23.4236Z" fill="white"/>
<path d="M17.6791 33.8395C17.22 33.8395 16.8684 33.4985 16.8684 33.0405C16.8684 32.5826 17.22 32.2318 17.6791 32.2415C18.1186 32.2415 18.4605 32.5826 18.4703 33.021C18.4703 33.479 18.1382 33.8395 17.6791 33.8395Z" fill="white"/>
</g>
<defs>
<clipPath id="clip0_2018_85">
<rect width="42" height="38" fill="white"/>
</clipPath>
</defs>
</svg>
