<svg width="44" height="46" viewBox="0 0 44 46" fill="none" xmlns="http://www.w3.org/2000/svg">
<path d="M2.93335 43.3525C2.93335 43.1173 2.93335 42.9333 2.93335 42.7596C2.93335 34.1525 2.93335 25.5556 2.93335 16.9485C2.93335 16.0285 3.21621 15.7422 4.16954 15.7422C6.08669 15.7422 8.00383 15.7422 9.92097 15.7422H10.4762C10.4762 15.0165 10.4762 14.3316 10.4762 13.6467C10.4762 12.8289 10.4762 12.0213 10.4762 11.2036C10.4762 10.5596 10.8429 10.2222 11.5029 10.212C12.0791 10.212 12.6657 10.212 13.3048 10.212C13.3048 9.36356 13.3048 8.54579 13.3048 7.71779C13.3048 6.81823 13.5981 6.53201 14.5095 6.53201C15.0229 6.53201 15.5467 6.53201 16.1334 6.53201C16.1334 6.12312 16.1334 5.73467 16.1334 5.34623C16.1334 4.80445 16.1229 4.2729 16.1334 3.73112C16.1438 3.20979 16.5524 2.84179 17.0762 2.85201C17.6 2.85201 17.9981 3.22001 18.0086 3.75156C18.0191 4.65112 18.0086 5.5609 18.0086 6.50134H18.9514C18.9514 6.34801 18.9514 6.18445 18.9514 6.0209C18.9514 4.68179 18.9514 3.3529 18.9514 2.01379C18.9514 1.39023 19.3286 1.00179 19.9153 1.01201C20.4705 1.01201 20.8372 1.41067 20.8372 2.01379C20.8372 3.49601 20.8372 4.98845 20.8372 6.53201C21.4029 6.53201 21.9476 6.53201 22.4924 6.53201C23.3514 6.53201 23.6657 6.83867 23.6657 7.65645C23.6657 8.48445 23.6657 9.31245 23.6657 10.1813H25.5514C25.5514 10.028 25.5514 9.86445 25.5514 9.7009C25.5514 8.39245 25.5514 7.09423 25.5514 5.78579C25.5514 5.0089 25.8762 4.69201 26.6514 4.69201C27.1962 4.69201 27.7514 4.69201 28.38 4.69201C28.38 4.11956 28.38 3.55734 28.38 2.99512C28.38 2.25912 28.7153 1.93201 29.4695 1.93201C32.2038 1.93201 34.9381 1.93201 37.6724 1.93201C38.4162 1.93201 38.7514 2.26934 38.7514 3.00534C38.7514 3.5369 38.7514 4.07867 38.7514 4.69201C39.3067 4.69201 39.8514 4.69201 40.3857 4.69201C41.2657 4.69201 41.58 4.98845 41.58 5.84712C41.58 18.1342 41.58 30.4111 41.58 42.6982V43.3422C41.9257 43.3422 42.2295 43.3422 42.5438 43.3422C43.0886 43.3627 43.4657 43.7307 43.4657 44.2418C43.4657 44.7733 43.0886 45.1516 42.5229 45.172C42.46 45.172 42.3972 45.172 42.3343 45.172C28.9457 45.172 15.5467 45.172 2.15811 45.172C1.42478 45.172 1.01621 44.8347 1.02669 44.2418C1.02669 43.7511 1.39335 43.3627 1.90669 43.3422C2.22097 43.3218 2.53526 43.3422 2.9124 43.3422L2.93335 43.3525ZM39.6838 43.332V6.56268H27.4791V25.8725H28.0134C29.6372 25.8725 31.2505 25.8725 32.8743 25.8725C33.7543 25.8725 34.0476 26.1689 34.0581 27.0378C34.0581 32.2818 34.0581 37.5258 34.0581 42.7698C34.0581 42.9538 34.0581 43.1276 34.0581 43.332H39.6838ZM4.8505 17.6027V43.3116H17.0553V17.6027H4.8505ZM32.141 43.332V27.7431H18.9934V43.332H32.141ZM25.5619 12.0929H12.4038V15.7422C14.2057 15.7422 15.9657 15.7422 17.7257 15.7422C18.7 15.7422 18.9724 16.0182 18.9724 16.9791C18.9724 19.7698 18.9724 22.5605 18.9724 25.3511V25.8213H25.5619V12.0827V12.0929ZM15.2219 10.1916H21.7695V8.40268H15.2219V10.1916ZM36.8657 4.68179V3.80267H30.3181V4.68179H36.8657Z" fill="white"/>
<path d="M36.9181 8.40268H38.7409V36.892H36.9181V8.40268Z" fill="white"/>
<path d="M30.2552 24.0018H28.4324V8.4129H30.2552V24.0018Z" fill="white"/>
<path d="M31.261 8.40268H33.0838V24.0018H31.261V8.40268Z" fill="white"/>
<path d="M35.9124 24.0018H34.0791V8.42313H35.9124V24.012V24.0018Z" fill="white"/>
<path d="M16.1019 23.092H14.2791V19.4733H16.1019V23.092Z" fill="white"/>
<path d="M7.61619 23.092H5.79333V19.4529H7.61619V23.092Z" fill="white"/>
<path d="M10.4658 19.4631V23.0716H8.62195V19.4631H10.4658Z" fill="white"/>
<path d="M8.60095 27.6716V24.0631H10.4448V27.6716H8.60095Z" fill="white"/>
<path d="M16.1124 24.0529V27.6716H14.2791V24.0529H16.1124Z" fill="white"/>
<path d="M13.2942 19.4631V23.0818H11.4504V19.4631H13.2942Z" fill="white"/>
<path d="M5.78284 32.292V28.6631H7.61617V32.292H5.78284Z" fill="white"/>
<path d="M10.4553 28.6631V32.292H8.63245V28.6631H10.4553Z" fill="white"/>
<path d="M13.2838 28.6631V32.2818H11.4609V28.6631H13.2838Z" fill="white"/>
<path d="M14.2896 28.6529H16.1124V32.2716H14.2896V28.6529Z" fill="white"/>
<path d="M7.62669 33.2631V36.8818H5.80383V33.2631H7.62669Z" fill="white"/>
<path d="M10.4553 33.2631V36.8818H8.63245V33.2631H10.4553Z" fill="white"/>
<path d="M11.4504 33.2529H13.2733V36.8716H11.4504V33.2529Z" fill="white"/>
<path d="M16.1124 36.892H14.2896V33.2631H16.1124V36.892Z" fill="white"/>
<path d="M13.2733 27.692H11.4504V24.0733H13.2733V27.692Z" fill="white"/>
<path d="M7.61619 41.492H5.79333V37.8733H7.61619V41.492Z" fill="white"/>
<path d="M8.61145 41.492V37.8733H10.4448V41.492H8.61145Z" fill="white"/>
<path d="M11.4401 41.4818V37.8631H13.2839V41.4818H11.4401Z" fill="white"/>
<path d="M14.2896 37.8427H16.1019V41.4818H14.2896V37.8427Z" fill="white"/>
<path d="M5.79333 24.0427H7.61619V27.6818H5.79333V24.0427Z" fill="white"/>
<path d="M30.2657 35.1031V36.892H20.9V35.1031H30.2657Z" fill="white"/>
<path d="M30.2657 29.5831V31.3618H20.9V29.5831H30.2657Z" fill="white"/>
<path d="M30.2657 32.3431V34.1218H20.879V32.3431H30.2657Z" fill="white"/>
<path d="M30.2657 37.8631V39.6418H20.879V37.8631H30.2657Z" fill="white"/>
<path d="M16.1124 13.0129V14.8018H14.2896V13.0129H16.1124Z" fill="white"/>
<path d="M18.9305 14.8018H17.1077V13.0231H18.9305V14.8018Z" fill="white"/>
<path d="M21.759 14.8018H19.9362V13.0231H21.759V14.8018Z" fill="white"/>
<path d="M24.6191 13.0231V14.7916H22.7753V13.0231H24.6191Z" fill="white"/>
<path d="M21.7695 15.7729V17.5516H19.9362V15.7729H21.7695Z" fill="white"/>
<path d="M22.7648 17.5516V15.7627H24.5876V17.5516H22.7648Z" fill="white"/>
<path d="M24.5981 20.3218H22.7648V18.5431H24.5981V20.3218Z" fill="white"/>
<path d="M21.7591 20.3218H19.9258V18.5431H21.7591V20.3218Z" fill="white"/>
<path d="M19.9467 21.2827H21.7695V23.0818H19.9467V21.2827Z" fill="white"/>
<path d="M22.7648 23.0818V21.3031H24.5981V23.0818H22.7648Z" fill="white"/>
</svg>
